<svg width="18" height="18" viewBox="0 0 18 18" fill="none" xmlns="http://www.w3.org/2000/svg">
<g clip-path="url(#clip0_2_91)">
<path d="M3.75 6.75V12M3.75 12C4.34674 12 4.91903 12.2371 5.34099 12.659C5.76295 13.081 6 13.6533 6 14.25C6 14.8467 5.76295 15.419 5.34099 15.841C4.91903 16.2629 4.34674 16.5 3.75 16.5C3.15326 16.5 2.58097 16.2629 2.15901 15.841C1.73705 15.419 1.5 14.8467 1.5 14.25C1.5 13.6533 1.73705 13.081 2.15901 12.659C2.58097 12.2371 3.15326 12 3.75 12ZM3.9375 6.375C4.58396 6.375 5.20395 6.11819 5.66107 5.66107C6.11819 5.20395 6.375 4.58396 6.375 3.9375C6.375 3.29103 6.11819 2.67105 5.66107 2.21393C5.20395 1.75681 4.58396 1.5 3.9375 1.5C3.29103 1.5 2.67105 1.75681 2.21393 2.21393C1.75681 2.67105 1.5 3.29103 1.5 3.9375C1.5 4.58396 1.75681 5.20395 2.21393 5.66107C2.67105 6.11819 3.29103 6.375 3.9375 6.375ZM14.25 16.5C14.8467 16.5 15.419 16.2629 15.841 15.841C16.2629 15.419 16.5 14.8467 16.5 14.25C16.5 13.6533 16.2629 13.081 15.841 12.659C15.419 12.2371 14.8467 12 14.25 12C13.6533 12 13.081 12.2371 12.659 12.659C12.2371 13.081 12 13.6533 12 14.25C12 14.8467 12.2371 15.419 12.659 15.841C13.081 16.2629 13.6533 16.5 14.25 16.5Z" stroke="#787878" stroke-width="1.125" stroke-linecap="round" stroke-linejoin="round"/>
<path d="M3.84753 6.75C4.01706 7.40417 4.39948 7.98332 4.93452 8.39613C5.46955 8.80895 6.12676 9.03196 6.80253 9.03L9.37503 9.0225C10.3085 9.01979 11.2196 9.30795 11.9817 9.84695C12.7438 10.3859 13.3191 11.149 13.6275 12.03" stroke="#787878" stroke-width="1.125" stroke-linecap="round" stroke-linejoin="round"/>
</g>
<defs>
<clipPath id="clip0_2_91">
<rect width="18" height="18" fill="white"/>
</clipPath>
</defs>
</svg>
