<svg width="24" height="24" viewBox="0 0 24 24" fill="none" xmlns="http://www.w3.org/2000/svg">
<path d="M3.41 22C3.41 18.13 7.26 15 12 15M22 22L21 21M12 12C13.3261 12 14.5979 11.4732 15.5355 10.5355C16.4732 9.59785 17 8.32608 17 7C17 5.67392 16.4732 4.40215 15.5355 3.46447C14.5979 2.52678 13.3261 2 12 2C10.6739 2 9.40215 2.52678 8.46447 3.46447C7.52679 4.40215 7 5.67392 7 7C7 8.32608 7.52679 9.59785 8.46447 10.5355C9.40215 11.4732 10.6739 12 12 12ZM18.2 21.4C19.0487 21.4 19.8626 21.0629 20.4627 20.4627C21.0629 19.8626 21.4 19.0487 21.4 18.2C21.4 17.3513 21.0629 16.5374 20.4627 15.9373C19.8626 15.3371 19.0487 15 18.2 15C17.3513 15 16.5374 15.3371 15.9373 15.9373C15.3371 16.5374 15 17.3513 15 18.2C15 19.0487 15.3371 19.8626 15.9373 20.4627C16.5374 21.0629 17.3513 21.4 18.2 21.4Z" stroke="#787878" stroke-width="1.5" stroke-linecap="round" stroke-linejoin="round"/>
</svg>
